<svg class="site-logo" width="600pt" height="600pt" version="1.1" viewBox="0 0 600 600" xmlns="http://www.w3.org/2000/svg" fill="#342e3b">
 <g>
  <path d="m316.86 377.27c0-28.379-23.09-51.469-51.457-51.469-28.379 0-51.469 23.09-51.469 51.469 0 28.379 23.09 51.469 51.469 51.469 28.371-0.003906 51.457-23.09 51.457-51.469zm-51.457 24.465c-13.488 0-24.469-10.98-24.469-24.469s10.98-24.469 24.469-24.469c13.488 0 24.457 10.98 24.457 24.469 0 13.492-10.969 24.469-24.457 24.469z"/>
  <path d="m358.31 306.78c38.832 0 70.453-31.609 70.453-70.453s-31.621-70.453-70.453-70.453c-38.855 0-70.453 31.609-70.453 70.453s31.598 70.453 70.453 70.453zm0-113.91c23.953 0 43.453 19.5 43.453 43.453s-19.5 43.453-43.453 43.453c-23.965 0-43.453-19.5-43.453-43.453s19.488-43.453 43.453-43.453z"/>
 </g>
</svg>
